# xmcd
#
# Track frame offsets:
#	150
#	15247
#	27107
#	41635
#	56570
#	69235
#	83182
#	96542
#	111897
#	126535
#	139097
#	153495
#	169132
#	181752
#	196167
#	208332
#	221462
#	235255
#
# Disc length: 3321 seconds
#
# Revision: 4
# Processed by: cddbd v1.5.2PL0 Copyright (c) Steve Scherf et al.
# Submitted via: AudioConverter v8.05 Copyright (c) D.R. Software
#
DISCID=fb0cf712
DTITLE=Peetie Wheatstraw - The Blues Collection # 82 - The Devil's Son-in-law
DYEAR=1996
DGENRE=Piano Blues
TTITLE0=Pete Wheatstraw
TTITLE1=Peetie Wheatstraw Stomp
TTITLE2=Drinking Man Blues
TTITLE3=Crazy With The Blues
TTITLE4=Throw Me In The Alley
TTITLE5=Police Station Blues
TTITLE6=Telephone Blues
TTITLE7=All Night Long Blues
TTITLE8=Working On The Project
TTITLE9=Shake That Thing
TTITLE10=Cake Alley
TTITLE11=Devil's Son-In-Law
TTITLE12=Gangster's Blues
TTITLE13=Tight Time Blues
TTITLE14=Shack Bully Stomp
TTITLE15=Weeping Willow Blues
TTITLE16=Come Over And See Me
TTITLE17=Third Street's Going Down
EXTD=
EXTT0=
EXTT1=
EXTT2=
EXTT3=
EXTT4=
EXTT5=
EXTT6=
EXTT7=
EXTT8=
EXTT9=
EXTT10=
EXTT11=
EXTT12=
EXTT13=
EXTT14=
EXTT15=
EXTT16=
EXTT17=
PLAYORDER=
